<mxfile host="app.diagrams.net" modified="2024-01-11T07:06:29.754Z" agent="Mozilla/5.0 (Windows NT 10.0; Win64; x64) AppleWebKit/537.36 (KHTML, like Gecko) Chrome/120.0.0.0 Safari/537.36" etag="DWgzdkZhX1iAhWJ8X5NF" version="22.1.17" type="github">
  <diagram id="R2lEEEUBdFMjLlhIrx00" name="Page-1">
    <mxGraphModel dx="1646" dy="2987" grid="1" gridSize="10" guides="1" tooltips="1" connect="1" arrows="1" fold="1" page="1" pageScale="1" pageWidth="850" pageHeight="1100" math="0" shadow="0" extFonts="Permanent Marker^https://fonts.googleapis.com/css?family=Permanent+Marker">
      <root>
        <mxCell id="0" />
        <mxCell id="1" parent="0" />
        <mxCell id="O8cavCCpRLxBSJFZooF9-4" value="" style="edgeStyle=orthogonalEdgeStyle;rounded=0;orthogonalLoop=1;jettySize=auto;html=1;" edge="1" parent="1" source="O8cavCCpRLxBSJFZooF9-2">
          <mxGeometry relative="1" as="geometry">
            <mxPoint x="250" y="-999.9999999999998" as="targetPoint" />
          </mxGeometry>
        </mxCell>
        <mxCell id="O8cavCCpRLxBSJFZooF9-2" value="&lt;font size=&quot;3&quot;&gt;Branch&lt;/font&gt;" style="rounded=1;whiteSpace=wrap;html=1;arcSize=0;" vertex="1" parent="1">
          <mxGeometry x="220" y="-910" width="120" height="60" as="geometry" />
        </mxCell>
        <mxCell id="O8cavCCpRLxBSJFZooF9-8" value="" style="edgeStyle=orthogonalEdgeStyle;rounded=0;orthogonalLoop=1;jettySize=auto;html=1;" edge="1" parent="1" target="O8cavCCpRLxBSJFZooF9-2">
          <mxGeometry relative="1" as="geometry">
            <mxPoint x="170" y="-980.0000000000001" as="sourcePoint" />
            <Array as="points">
              <mxPoint x="230" y="-980" />
            </Array>
          </mxGeometry>
        </mxCell>
        <mxCell id="O8cavCCpRLxBSJFZooF9-25" value="" style="edgeStyle=orthogonalEdgeStyle;rounded=0;orthogonalLoop=1;jettySize=auto;html=1;" edge="1" parent="1" source="O8cavCCpRLxBSJFZooF9-23">
          <mxGeometry relative="1" as="geometry">
            <mxPoint x="770" y="-1054.9999999999998" as="targetPoint" />
          </mxGeometry>
        </mxCell>
        <mxCell id="O8cavCCpRLxBSJFZooF9-23" value="tests" style="rounded=1;whiteSpace=wrap;html=1;" vertex="1" parent="1">
          <mxGeometry x="650" y="-1005" width="120" height="60" as="geometry" />
        </mxCell>
        <mxCell id="O8cavCCpRLxBSJFZooF9-127" value="" style="edgeStyle=orthogonalEdgeStyle;rounded=0;orthogonalLoop=1;jettySize=auto;html=1;" edge="1" parent="1" source="O8cavCCpRLxBSJFZooF9-26" target="O8cavCCpRLxBSJFZooF9-126">
          <mxGeometry relative="1" as="geometry" />
        </mxCell>
        <mxCell id="O8cavCCpRLxBSJFZooF9-145" value="M" style="edgeLabel;html=1;align=center;verticalAlign=middle;resizable=0;points=[];" vertex="1" connectable="0" parent="O8cavCCpRLxBSJFZooF9-127">
          <mxGeometry x="0.1254" relative="1" as="geometry">
            <mxPoint as="offset" />
          </mxGeometry>
        </mxCell>
        <mxCell id="O8cavCCpRLxBSJFZooF9-26" value="&lt;br&gt;&lt;span style=&quot;font-size:14.0pt;line-height:&lt;br/&gt;107%;font-family:&amp;quot;Arial&amp;quot;,sans-serif;mso-ascii-theme-font:minor-bidi;mso-fareast-font-family:&lt;br/&gt;Calibri;mso-fareast-theme-font:minor-latin;mso-hansi-theme-font:minor-bidi;&lt;br/&gt;mso-bidi-theme-font:minor-bidi;mso-ansi-language:EN-US;mso-fareast-language:&lt;br/&gt;EN-US;mso-bidi-language:AR-EG&quot; lang=&quot;EN-US&quot;&gt;patient&lt;/span&gt;&lt;br&gt;&lt;br&gt;" style="rounded=1;whiteSpace=wrap;html=1;arcSize=15;" vertex="1" parent="1">
          <mxGeometry x="830" y="-667" width="120" height="60" as="geometry" />
        </mxCell>
        <mxCell id="O8cavCCpRLxBSJFZooF9-33" value="" style="edgeStyle=orthogonalEdgeStyle;rounded=0;orthogonalLoop=1;jettySize=auto;html=1;" edge="1" parent="1" target="O8cavCCpRLxBSJFZooF9-32">
          <mxGeometry relative="1" as="geometry">
            <mxPoint x="120" y="-1000" as="sourcePoint" />
          </mxGeometry>
        </mxCell>
        <mxCell id="O8cavCCpRLxBSJFZooF9-32" value="area" style="ellipse;whiteSpace=wrap;html=1;align=center;" vertex="1" parent="1">
          <mxGeometry x="60" y="-1070" width="100" height="40" as="geometry" />
        </mxCell>
        <mxCell id="O8cavCCpRLxBSJFZooF9-37" value="" style="edgeStyle=orthogonalEdgeStyle;rounded=0;orthogonalLoop=1;jettySize=auto;html=1;" edge="1" parent="1" source="O8cavCCpRLxBSJFZooF9-35" target="O8cavCCpRLxBSJFZooF9-36">
          <mxGeometry relative="1" as="geometry" />
        </mxCell>
        <mxCell id="O8cavCCpRLxBSJFZooF9-39" value="" style="edgeStyle=orthogonalEdgeStyle;rounded=0;orthogonalLoop=1;jettySize=auto;html=1;" edge="1" parent="1" source="O8cavCCpRLxBSJFZooF9-35" target="O8cavCCpRLxBSJFZooF9-38">
          <mxGeometry relative="1" as="geometry" />
        </mxCell>
        <mxCell id="O8cavCCpRLxBSJFZooF9-35" value="Address" style="ellipse;whiteSpace=wrap;html=1;align=center;" vertex="1" parent="1">
          <mxGeometry x="80" y="-1000" width="100" height="40" as="geometry" />
        </mxCell>
        <mxCell id="O8cavCCpRLxBSJFZooF9-36" value="street" style="ellipse;whiteSpace=wrap;html=1;align=center;" vertex="1" parent="1">
          <mxGeometry x="-100" y="-1000" width="100" height="40" as="geometry" />
        </mxCell>
        <mxCell id="O8cavCCpRLxBSJFZooF9-38" value="Bullding No." style="ellipse;whiteSpace=wrap;html=1;align=center;" vertex="1" parent="1">
          <mxGeometry x="-40" y="-930" width="100" height="40" as="geometry" />
        </mxCell>
        <mxCell id="O8cavCCpRLxBSJFZooF9-42" value="" style="edgeStyle=orthogonalEdgeStyle;rounded=0;orthogonalLoop=1;jettySize=auto;html=1;" edge="1" parent="1" source="O8cavCCpRLxBSJFZooF9-40" target="O8cavCCpRLxBSJFZooF9-35">
          <mxGeometry relative="1" as="geometry" />
        </mxCell>
        <mxCell id="O8cavCCpRLxBSJFZooF9-40" value="city" style="ellipse;whiteSpace=wrap;html=1;align=center;direction=south;" vertex="1" parent="1">
          <mxGeometry x="170" y="-1140" width="40" height="100" as="geometry" />
        </mxCell>
        <mxCell id="O8cavCCpRLxBSJFZooF9-44" value="" style="edgeStyle=orthogonalEdgeStyle;rounded=0;orthogonalLoop=1;jettySize=auto;html=1;" edge="1" parent="1" source="O8cavCCpRLxBSJFZooF9-43" target="O8cavCCpRLxBSJFZooF9-35">
          <mxGeometry relative="1" as="geometry" />
        </mxCell>
        <mxCell id="O8cavCCpRLxBSJFZooF9-43" value="floor No." style="ellipse;whiteSpace=wrap;html=1;align=center;" vertex="1" parent="1">
          <mxGeometry x="-70" y="-1060" width="100" height="40" as="geometry" />
        </mxCell>
        <mxCell id="O8cavCCpRLxBSJFZooF9-45" value="Code" style="ellipse;whiteSpace=wrap;html=1;align=center;fontStyle=4;" vertex="1" parent="1">
          <mxGeometry x="200" y="-1040" width="100" height="40" as="geometry" />
        </mxCell>
        <mxCell id="O8cavCCpRLxBSJFZooF9-48" value="" style="edgeStyle=orthogonalEdgeStyle;rounded=0;orthogonalLoop=1;jettySize=auto;html=1;" edge="1" parent="1" source="O8cavCCpRLxBSJFZooF9-47" target="O8cavCCpRLxBSJFZooF9-2">
          <mxGeometry relative="1" as="geometry" />
        </mxCell>
        <mxCell id="O8cavCCpRLxBSJFZooF9-47" value="Name" style="ellipse;whiteSpace=wrap;html=1;align=center;" vertex="1" parent="1">
          <mxGeometry x="290" y="-1080" width="100" height="40" as="geometry" />
        </mxCell>
        <mxCell id="O8cavCCpRLxBSJFZooF9-51" value="duration" style="ellipse;whiteSpace=wrap;html=1;align=center;" vertex="1" parent="1">
          <mxGeometry x="720" y="-1095" width="100" height="40" as="geometry" />
        </mxCell>
        <mxCell id="O8cavCCpRLxBSJFZooF9-55" style="edgeStyle=orthogonalEdgeStyle;rounded=0;orthogonalLoop=1;jettySize=auto;html=1;exitX=1;exitY=0.5;exitDx=0;exitDy=0;entryX=1;entryY=0.75;entryDx=0;entryDy=0;" edge="1" parent="1" source="O8cavCCpRLxBSJFZooF9-26" target="O8cavCCpRLxBSJFZooF9-26">
          <mxGeometry relative="1" as="geometry" />
        </mxCell>
        <mxCell id="O8cavCCpRLxBSJFZooF9-65" value="" style="edgeStyle=orthogonalEdgeStyle;rounded=0;orthogonalLoop=1;jettySize=auto;html=1;entryX=0.84;entryY=-0.011;entryDx=0;entryDy=0;entryPerimeter=0;" edge="1" parent="1" source="O8cavCCpRLxBSJFZooF9-56" target="O8cavCCpRLxBSJFZooF9-26">
          <mxGeometry relative="1" as="geometry">
            <mxPoint x="930" y="-677" as="targetPoint" />
          </mxGeometry>
        </mxCell>
        <mxCell id="O8cavCCpRLxBSJFZooF9-82" value="" style="edgeStyle=orthogonalEdgeStyle;rounded=0;orthogonalLoop=1;jettySize=auto;html=1;" edge="1" parent="1" source="O8cavCCpRLxBSJFZooF9-56" target="O8cavCCpRLxBSJFZooF9-63">
          <mxGeometry relative="1" as="geometry" />
        </mxCell>
        <mxCell id="O8cavCCpRLxBSJFZooF9-56" value="ID" style="ellipse;whiteSpace=wrap;html=1;align=center;fontStyle=4;" vertex="1" parent="1">
          <mxGeometry x="920" y="-757" width="100" height="40" as="geometry" />
        </mxCell>
        <mxCell id="O8cavCCpRLxBSJFZooF9-58" value="gender" style="ellipse;whiteSpace=wrap;html=1;align=center;" vertex="1" parent="1">
          <mxGeometry x="700" y="-727" width="100" height="40" as="geometry" />
        </mxCell>
        <mxCell id="O8cavCCpRLxBSJFZooF9-59" value="phone" style="ellipse;whiteSpace=wrap;html=1;align=center;" vertex="1" parent="1">
          <mxGeometry x="750" y="-837" width="100" height="40" as="geometry" />
        </mxCell>
        <mxCell id="O8cavCCpRLxBSJFZooF9-60" value="name" style="ellipse;whiteSpace=wrap;html=1;align=center;" vertex="1" parent="1">
          <mxGeometry x="690" y="-797" width="100" height="40" as="geometry" />
        </mxCell>
        <mxCell id="O8cavCCpRLxBSJFZooF9-61" value="dateofbirth" style="ellipse;whiteSpace=wrap;html=1;align=center;" vertex="1" parent="1">
          <mxGeometry x="790" y="-767" width="100" height="40" as="geometry" />
        </mxCell>
        <mxCell id="O8cavCCpRLxBSJFZooF9-62" value="age" style="ellipse;whiteSpace=wrap;html=1;align=center;dashed=1;" vertex="1" parent="1">
          <mxGeometry x="860" y="-817" width="100" height="40" as="geometry" />
        </mxCell>
        <mxCell id="O8cavCCpRLxBSJFZooF9-81" value="" style="edgeStyle=orthogonalEdgeStyle;rounded=0;orthogonalLoop=1;jettySize=auto;html=1;entryX=0.75;entryY=0;entryDx=0;entryDy=0;" edge="1" parent="1" source="O8cavCCpRLxBSJFZooF9-63" target="O8cavCCpRLxBSJFZooF9-26">
          <mxGeometry relative="1" as="geometry">
            <Array as="points">
              <mxPoint x="970" y="-757" />
              <mxPoint x="920" y="-757" />
            </Array>
          </mxGeometry>
        </mxCell>
        <mxCell id="O8cavCCpRLxBSJFZooF9-63" value="has chronic diseases" style="ellipse;whiteSpace=wrap;html=1;align=center;" vertex="1" parent="1">
          <mxGeometry x="920" y="-857" width="100" height="40" as="geometry" />
        </mxCell>
        <mxCell id="O8cavCCpRLxBSJFZooF9-75" value="" style="endArrow=classic;html=1;rounded=0;exitX=0.5;exitY=1;exitDx=0;exitDy=0;entryX=0.25;entryY=0;entryDx=0;entryDy=0;" edge="1" parent="1" source="O8cavCCpRLxBSJFZooF9-61" target="O8cavCCpRLxBSJFZooF9-26">
          <mxGeometry width="50" height="50" relative="1" as="geometry">
            <mxPoint x="800" y="-667" as="sourcePoint" />
            <mxPoint x="850" y="-717" as="targetPoint" />
            <Array as="points">
              <mxPoint x="840" y="-717" />
              <mxPoint x="830" y="-697" />
            </Array>
          </mxGeometry>
        </mxCell>
        <mxCell id="O8cavCCpRLxBSJFZooF9-76" value="" style="endArrow=classic;html=1;rounded=0;" edge="1" parent="1">
          <mxGeometry width="50" height="50" relative="1" as="geometry">
            <mxPoint x="920" y="-772" as="sourcePoint" />
            <mxPoint x="880" y="-667" as="targetPoint" />
          </mxGeometry>
        </mxCell>
        <mxCell id="O8cavCCpRLxBSJFZooF9-78" value="" style="endArrow=classic;html=1;rounded=0;" edge="1" parent="1">
          <mxGeometry width="50" height="50" relative="1" as="geometry">
            <mxPoint x="840" y="-807" as="sourcePoint" />
            <mxPoint x="900" y="-677" as="targetPoint" />
            <Array as="points">
              <mxPoint x="890" y="-757" />
            </Array>
          </mxGeometry>
        </mxCell>
        <mxCell id="O8cavCCpRLxBSJFZooF9-79" value="" style="endArrow=classic;html=1;rounded=0;exitX=0.701;exitY=1.015;exitDx=0;exitDy=0;exitPerimeter=0;entryX=0;entryY=0.25;entryDx=0;entryDy=0;" edge="1" parent="1" source="O8cavCCpRLxBSJFZooF9-58" target="O8cavCCpRLxBSJFZooF9-26">
          <mxGeometry width="50" height="50" relative="1" as="geometry">
            <mxPoint x="750" y="-617" as="sourcePoint" />
            <mxPoint x="800" y="-667" as="targetPoint" />
          </mxGeometry>
        </mxCell>
        <mxCell id="O8cavCCpRLxBSJFZooF9-80" value="" style="endArrow=classic;html=1;rounded=0;entryX=0;entryY=0;entryDx=0;entryDy=0;exitX=0.765;exitY=1.002;exitDx=0;exitDy=0;exitPerimeter=0;" edge="1" parent="1" source="O8cavCCpRLxBSJFZooF9-60" target="O8cavCCpRLxBSJFZooF9-26">
          <mxGeometry width="50" height="50" relative="1" as="geometry">
            <mxPoint x="750" y="-737" as="sourcePoint" />
            <mxPoint x="800" y="-787" as="targetPoint" />
          </mxGeometry>
        </mxCell>
        <mxCell id="O8cavCCpRLxBSJFZooF9-99" value="" style="edgeStyle=orthogonalEdgeStyle;rounded=0;orthogonalLoop=1;jettySize=auto;html=1;" edge="1" parent="1" source="O8cavCCpRLxBSJFZooF9-87" target="O8cavCCpRLxBSJFZooF9-97">
          <mxGeometry relative="1" as="geometry" />
        </mxCell>
        <mxCell id="O8cavCCpRLxBSJFZooF9-87" value="Employee" style="whiteSpace=wrap;html=1;align=center;" vertex="1" parent="1">
          <mxGeometry x="220" y="-650" width="100" height="40" as="geometry" />
        </mxCell>
        <mxCell id="O8cavCCpRLxBSJFZooF9-90" value="" style="edgeStyle=orthogonalEdgeStyle;rounded=0;orthogonalLoop=1;jettySize=auto;html=1;" edge="1" parent="1" source="O8cavCCpRLxBSJFZooF9-88" target="O8cavCCpRLxBSJFZooF9-2">
          <mxGeometry relative="1" as="geometry" />
        </mxCell>
        <mxCell id="O8cavCCpRLxBSJFZooF9-88" value="serve" style="rhombus;whiteSpace=wrap;html=1;" vertex="1" parent="1">
          <mxGeometry x="230" y="-790" width="80" height="80" as="geometry" />
        </mxCell>
        <mxCell id="O8cavCCpRLxBSJFZooF9-91" value="salary" style="ellipse;whiteSpace=wrap;html=1;align=center;" vertex="1" parent="1">
          <mxGeometry x="110" y="-590" width="100" height="40" as="geometry" />
        </mxCell>
        <mxCell id="O8cavCCpRLxBSJFZooF9-92" value="&lt;u&gt;ID&lt;/u&gt;" style="ellipse;whiteSpace=wrap;html=1;align=center;" vertex="1" parent="1">
          <mxGeometry x="200" y="-580" width="100" height="40" as="geometry" />
        </mxCell>
        <mxCell id="O8cavCCpRLxBSJFZooF9-93" value="name" style="ellipse;whiteSpace=wrap;html=1;align=center;" vertex="1" parent="1">
          <mxGeometry x="300" y="-580" width="100" height="40" as="geometry" />
        </mxCell>
        <mxCell id="O8cavCCpRLxBSJFZooF9-95" value="" style="endArrow=classic;html=1;rounded=0;entryX=0;entryY=0;entryDx=0;entryDy=0;exitX=0.893;exitY=1.118;exitDx=0;exitDy=0;exitPerimeter=0;" edge="1" parent="1" source="O8cavCCpRLxBSJFZooF9-87" target="O8cavCCpRLxBSJFZooF9-93">
          <mxGeometry width="50" height="50" relative="1" as="geometry">
            <mxPoint x="320" y="-590" as="sourcePoint" />
            <mxPoint x="565" y="-460" as="targetPoint" />
          </mxGeometry>
        </mxCell>
        <mxCell id="O8cavCCpRLxBSJFZooF9-97" value="Team" style="ellipse;whiteSpace=wrap;html=1;align=center;" vertex="1" parent="1">
          <mxGeometry x="80" y="-650" width="100" height="40" as="geometry" />
        </mxCell>
        <mxCell id="O8cavCCpRLxBSJFZooF9-100" value="" style="endArrow=classic;html=1;rounded=0;exitX=0.358;exitY=0.984;exitDx=0;exitDy=0;exitPerimeter=0;entryX=0.5;entryY=0;entryDx=0;entryDy=0;" edge="1" parent="1" source="O8cavCCpRLxBSJFZooF9-87" target="O8cavCCpRLxBSJFZooF9-92">
          <mxGeometry width="50" height="50" relative="1" as="geometry">
            <mxPoint x="270" y="-600" as="sourcePoint" />
            <mxPoint x="250" y="-590" as="targetPoint" />
          </mxGeometry>
        </mxCell>
        <mxCell id="O8cavCCpRLxBSJFZooF9-101" value="" style="endArrow=classic;html=1;rounded=0;entryX=1;entryY=0;entryDx=0;entryDy=0;exitX=0.893;exitY=1.118;exitDx=0;exitDy=0;exitPerimeter=0;" edge="1" parent="1" target="O8cavCCpRLxBSJFZooF9-91">
          <mxGeometry width="50" height="50" relative="1" as="geometry">
            <mxPoint x="220" y="-611" as="sourcePoint" />
            <mxPoint x="226" y="-580" as="targetPoint" />
          </mxGeometry>
        </mxCell>
        <mxCell id="O8cavCCpRLxBSJFZooF9-106" value="" style="edgeStyle=orthogonalEdgeStyle;rounded=0;orthogonalLoop=1;jettySize=auto;html=1;entryX=0;entryY=0;entryDx=0;entryDy=0;" edge="1" parent="1" source="O8cavCCpRLxBSJFZooF9-104" target="O8cavCCpRLxBSJFZooF9-87">
          <mxGeometry relative="1" as="geometry">
            <Array as="points">
              <mxPoint x="200" y="-740" />
              <mxPoint x="200" y="-650" />
            </Array>
          </mxGeometry>
        </mxCell>
        <mxCell id="O8cavCCpRLxBSJFZooF9-104" value="Mange" style="rhombus;whiteSpace=wrap;html=1;rounded=1;arcSize=0;" vertex="1" parent="1">
          <mxGeometry x="50" y="-780" width="80" height="80" as="geometry" />
        </mxCell>
        <mxCell id="O8cavCCpRLxBSJFZooF9-107" value="" style="shape=link;html=1;rounded=0;exitX=0.5;exitY=0;exitDx=0;exitDy=0;" edge="1" parent="1" source="O8cavCCpRLxBSJFZooF9-104">
          <mxGeometry relative="1" as="geometry">
            <mxPoint x="70" y="-880.62" as="sourcePoint" />
            <mxPoint x="220" y="-870" as="targetPoint" />
          </mxGeometry>
        </mxCell>
        <mxCell id="O8cavCCpRLxBSJFZooF9-108" value="1" style="resizable=0;html=1;whiteSpace=wrap;align=right;verticalAlign=bottom;" connectable="0" vertex="1" parent="O8cavCCpRLxBSJFZooF9-107">
          <mxGeometry x="1" relative="1" as="geometry" />
        </mxCell>
        <mxCell id="O8cavCCpRLxBSJFZooF9-109" value="1" style="text;html=1;align=center;verticalAlign=middle;resizable=0;points=[];autosize=1;strokeColor=none;fillColor=none;" vertex="1" parent="1">
          <mxGeometry x="175" y="-682" width="30" height="30" as="geometry" />
        </mxCell>
        <mxCell id="O8cavCCpRLxBSJFZooF9-110" value="" style="shape=link;html=1;rounded=0;entryX=0.5;entryY=1;entryDx=0;entryDy=0;exitX=0.5;exitY=0;exitDx=0;exitDy=0;" edge="1" parent="1" source="O8cavCCpRLxBSJFZooF9-87" target="O8cavCCpRLxBSJFZooF9-88">
          <mxGeometry relative="1" as="geometry">
            <mxPoint x="140" y="-700" as="sourcePoint" />
            <mxPoint x="300" y="-700" as="targetPoint" />
          </mxGeometry>
        </mxCell>
        <mxCell id="O8cavCCpRLxBSJFZooF9-111" value="M" style="resizable=0;html=1;whiteSpace=wrap;align=left;verticalAlign=bottom;" connectable="0" vertex="1" parent="O8cavCCpRLxBSJFZooF9-110">
          <mxGeometry x="-1" relative="1" as="geometry" />
        </mxCell>
        <mxCell id="O8cavCCpRLxBSJFZooF9-112" value="" style="resizable=0;html=1;whiteSpace=wrap;align=right;verticalAlign=bottom;" connectable="0" vertex="1" parent="O8cavCCpRLxBSJFZooF9-110">
          <mxGeometry x="1" relative="1" as="geometry" />
        </mxCell>
        <mxCell id="O8cavCCpRLxBSJFZooF9-113" value="1" style="text;html=1;align=center;verticalAlign=middle;resizable=0;points=[];autosize=1;strokeColor=none;fillColor=none;" vertex="1" parent="1">
          <mxGeometry x="275" y="-852" width="30" height="30" as="geometry" />
        </mxCell>
        <mxCell id="O8cavCCpRLxBSJFZooF9-115" value="" style="edgeStyle=orthogonalEdgeStyle;rounded=0;orthogonalLoop=1;jettySize=auto;html=1;" edge="1" parent="1" source="O8cavCCpRLxBSJFZooF9-114" target="O8cavCCpRLxBSJFZooF9-88">
          <mxGeometry relative="1" as="geometry" />
        </mxCell>
        <mxCell id="O8cavCCpRLxBSJFZooF9-114" value="duration" style="ellipse;whiteSpace=wrap;html=1;align=center;" vertex="1" parent="1">
          <mxGeometry x="350" y="-770" width="100" height="40" as="geometry" />
        </mxCell>
        <mxCell id="O8cavCCpRLxBSJFZooF9-116" value="supervisor" style="rhombus;whiteSpace=wrap;html=1;" vertex="1" parent="1">
          <mxGeometry x="410" y="-660" width="80" height="80" as="geometry" />
        </mxCell>
        <mxCell id="O8cavCCpRLxBSJFZooF9-118" value="" style="endArrow=classic;html=1;rounded=0;entryX=1;entryY=0;entryDx=0;entryDy=0;exitX=0.36;exitY=0.137;exitDx=0;exitDy=0;exitPerimeter=0;" edge="1" parent="1" source="O8cavCCpRLxBSJFZooF9-116" target="O8cavCCpRLxBSJFZooF9-87">
          <mxGeometry width="50" height="50" relative="1" as="geometry">
            <mxPoint x="370" y="-670" as="sourcePoint" />
            <mxPoint x="420" y="-720" as="targetPoint" />
          </mxGeometry>
        </mxCell>
        <mxCell id="O8cavCCpRLxBSJFZooF9-121" value="M" style="text;html=1;align=center;verticalAlign=middle;resizable=0;points=[];autosize=1;strokeColor=none;fillColor=none;" vertex="1" parent="1">
          <mxGeometry x="395" y="-672" width="30" height="30" as="geometry" />
        </mxCell>
        <mxCell id="O8cavCCpRLxBSJFZooF9-120" value="1" style="text;html=1;align=center;verticalAlign=middle;resizable=0;points=[];autosize=1;strokeColor=none;fillColor=none;" vertex="1" parent="1">
          <mxGeometry x="385" y="-630" width="30" height="30" as="geometry" />
        </mxCell>
        <mxCell id="O8cavCCpRLxBSJFZooF9-125" value="" style="endArrow=classic;html=1;rounded=0;entryX=1.107;entryY=0.66;entryDx=0;entryDy=0;entryPerimeter=0;exitX=1;exitY=1;exitDx=0;exitDy=0;" edge="1" parent="1" source="O8cavCCpRLxBSJFZooF9-87" target="O8cavCCpRLxBSJFZooF9-120">
          <mxGeometry width="50" height="50" relative="1" as="geometry">
            <mxPoint x="360" y="-600" as="sourcePoint" />
            <mxPoint x="410" y="-650" as="targetPoint" />
          </mxGeometry>
        </mxCell>
        <mxCell id="O8cavCCpRLxBSJFZooF9-126" value="Visit" style="rhombus;whiteSpace=wrap;html=1;rounded=1;arcSize=15;" vertex="1" parent="1">
          <mxGeometry x="550" y="-870" width="80" height="80" as="geometry" />
        </mxCell>
        <mxCell id="O8cavCCpRLxBSJFZooF9-130" value="" style="edgeStyle=orthogonalEdgeStyle;rounded=0;orthogonalLoop=1;jettySize=auto;html=1;entryX=1;entryY=0.5;entryDx=0;entryDy=0;" edge="1" source="O8cavCCpRLxBSJFZooF9-131" parent="1" target="O8cavCCpRLxBSJFZooF9-126">
          <mxGeometry relative="1" as="geometry">
            <mxPoint x="930" y="-497" as="targetPoint" />
          </mxGeometry>
        </mxCell>
        <mxCell id="O8cavCCpRLxBSJFZooF9-131" value="date of test" style="ellipse;whiteSpace=wrap;html=1;align=center;direction=south;" vertex="1" parent="1">
          <mxGeometry x="650" y="-897" width="40" height="100" as="geometry" />
        </mxCell>
        <mxCell id="O8cavCCpRLxBSJFZooF9-133" value="Name" style="ellipse;whiteSpace=wrap;html=1;align=center;fontStyle=4;" vertex="1" parent="1">
          <mxGeometry x="610" y="-1095" width="100" height="40" as="geometry" />
        </mxCell>
        <mxCell id="O8cavCCpRLxBSJFZooF9-134" value="Cost" style="ellipse;whiteSpace=wrap;html=1;align=center;" vertex="1" parent="1">
          <mxGeometry x="540" y="-1055" width="100" height="40" as="geometry" />
        </mxCell>
        <mxCell id="O8cavCCpRLxBSJFZooF9-135" value="" style="endArrow=classic;html=1;rounded=0;exitX=0;exitY=0.25;exitDx=0;exitDy=0;" edge="1" parent="1" source="O8cavCCpRLxBSJFZooF9-23">
          <mxGeometry width="50" height="50" relative="1" as="geometry">
            <mxPoint x="580" y="-970" as="sourcePoint" />
            <mxPoint x="630" y="-1020" as="targetPoint" />
            <Array as="points">
              <mxPoint x="630" y="-1020" />
            </Array>
          </mxGeometry>
        </mxCell>
        <mxCell id="O8cavCCpRLxBSJFZooF9-136" value="" style="endArrow=classic;html=1;rounded=0;exitX=0.25;exitY=0;exitDx=0;exitDy=0;" edge="1" parent="1" source="O8cavCCpRLxBSJFZooF9-23">
          <mxGeometry width="50" height="50" relative="1" as="geometry">
            <mxPoint x="680" y="-1025" as="sourcePoint" />
            <mxPoint x="660" y="-1055" as="targetPoint" />
            <Array as="points">
              <mxPoint x="660" y="-1055" />
            </Array>
          </mxGeometry>
        </mxCell>
        <mxCell id="O8cavCCpRLxBSJFZooF9-137" value="Code" style="ellipse;whiteSpace=wrap;html=1;align=center;fontStyle=4;" vertex="1" parent="1">
          <mxGeometry x="800" y="-1055" width="100" height="40" as="geometry" />
        </mxCell>
        <mxCell id="O8cavCCpRLxBSJFZooF9-138" value="" style="endArrow=classic;html=1;rounded=0;exitX=1;exitY=0.25;exitDx=0;exitDy=0;" edge="1" parent="1" source="O8cavCCpRLxBSJFZooF9-23">
          <mxGeometry width="50" height="50" relative="1" as="geometry">
            <mxPoint x="830" y="-975" as="sourcePoint" />
            <mxPoint x="810" y="-1025" as="targetPoint" />
            <Array as="points">
              <mxPoint x="810" y="-1025" />
            </Array>
          </mxGeometry>
        </mxCell>
        <mxCell id="O8cavCCpRLxBSJFZooF9-141" value="" style="endArrow=classic;html=1;rounded=0;exitX=1;exitY=0.25;exitDx=0;exitDy=0;" edge="1" parent="1" source="O8cavCCpRLxBSJFZooF9-2">
          <mxGeometry width="50" height="50" relative="1" as="geometry">
            <mxPoint x="540" y="-850" as="sourcePoint" />
            <mxPoint x="550" y="-830" as="targetPoint" />
          </mxGeometry>
        </mxCell>
        <mxCell id="O8cavCCpRLxBSJFZooF9-144" value="M" style="edgeLabel;html=1;align=center;verticalAlign=middle;resizable=0;points=[];" vertex="1" connectable="0" parent="O8cavCCpRLxBSJFZooF9-141">
          <mxGeometry x="-0.6804" y="-5" relative="1" as="geometry">
            <mxPoint x="-1" y="-10" as="offset" />
          </mxGeometry>
        </mxCell>
        <mxCell id="O8cavCCpRLxBSJFZooF9-142" value="" style="endArrow=classic;html=1;rounded=0;entryX=0.5;entryY=0;entryDx=0;entryDy=0;exitX=0;exitY=1;exitDx=0;exitDy=0;" edge="1" parent="1" source="O8cavCCpRLxBSJFZooF9-23" target="O8cavCCpRLxBSJFZooF9-126">
          <mxGeometry width="50" height="50" relative="1" as="geometry">
            <mxPoint x="540" y="-850" as="sourcePoint" />
            <mxPoint x="590" y="-900" as="targetPoint" />
          </mxGeometry>
        </mxCell>
        <mxCell id="O8cavCCpRLxBSJFZooF9-143" value="M" style="edgeLabel;html=1;align=center;verticalAlign=middle;resizable=0;points=[];" vertex="1" connectable="0" parent="O8cavCCpRLxBSJFZooF9-142">
          <mxGeometry x="-0.63" relative="1" as="geometry">
            <mxPoint y="1" as="offset" />
          </mxGeometry>
        </mxCell>
      </root>
    </mxGraphModel>
  </diagram>
</mxfile>
